<svg id="Layer_1" data-name="Layer 1" xmlns="http://www.w3.org/2000/svg" viewBox="0 0 483.9 163.865"><path d="M476.874 75.868a61.689 61.689 0 00-14.085-4.141c-1.135-.221-2.274-.418-3.4-.62-9.319-1.952-28.808-4.846-39.019-6.018a49.83 49.83 0 00-43.17-26.4 43.991 43.991 0 00-19.205 3.887 36.874 36.874 0 00-1.571-.943 51.363 51.363 0 00-8.517-3.889 35.566 35.566 0 00-9.435-1.982 20.893 20.893 0 00-4.2.174 46.486 46.486 0 00-1.164-.83 74.956 74.956 0 00-20.734-16.655 72.364 72.364 0 00-26.028-7.4 84.1 84.1 0 00-26.879 1.908 90.769 90.769 0 00-12.753 4.057c-1.028.428-2.051.858-3.06 1.324s-2.027.886-3.031 1.452c-.711.394-3.068 1.473-4.679 2.346l-.031-.065c-.511-1.016-1.074-2-1.671-2.975a29.1 29.1 0 00-2.033-2.9 35.355 35.355 0 00-4.983-4.759A74.81 74.81 0 00216.3 4.128a39.984 39.984 0 00-6.205-2.831 27.332 27.332 0 00-6.97-1.241 46.223 46.223 0 00-13.377 1.376 55.444 55.444 0 00-6.373 1.961c-4.972 1.87-9.152 5.251-13.789 7.765a9.4 9.4 0 01-2.3.967c-.857.2-1.749.183-2.619.317-4.882.75-7.108 6.3-9.09 10.3a28.855 28.855 0 00-1.822 20.99l.017.33c-.33-.208-.657-.419-.991-.619-3.766-2.252-7.046-3.979-10.565-4.737-1.173-1.047-2.4-2.107-3.752-3.112a37.592 37.592 0 00-14.847-6.523 45.191 45.191 0 00-16.034-.406c-10.661 1.609-20.273 6.749-28.457 13.146C72.914 47.692 66.908 57.68 62.9 66.318c-1.676.069-3 .127-4.085.18a28.35 28.35 0 00-2.24.072q-2.123.159-4.246.336l-.191.014c-2.355.165-4.112.215-6.14.553q-4.386.422-8.772.942a181.713 181.713 0 00-19.37 3.256 61.25 61.25 0 00-9.807 3.038 19.277 19.277 0 00-5.177 3.078 8.31 8.31 0 00-2.519 3.659 6.709 6.709 0 00-.3 2.931 5.387 5.387 0 00.309 1.411A6.077 6.077 0 00.873 87a10.63 10.63 0 002.6 3.083 16.045 16.045 0 002.579 1.743 33.55 33.55 0 004.987 2.223 98.024 98.024 0 009.7 2.982c6.435 1.641 12.859 2.868 19.29 3.945h.033a83.174 83.174 0 019.234 3.6c4.441 2.05 8.785 4.327 13.108 6.712l6.522 3.592c1.128.595 2.081 1.2 3.127 1.8 1.01.625 2 1.29 2.981 1.95a102.052 102.052 0 0111.152 9.17c3.62 3.32 7.235 6.823 11.308 10.034a69.108 69.108 0 006.434 4.49c1.1.73 2.3 1.318 3.446 1.979a18.08 18.08 0 002.05.947c.682.27 1.343.51 1.99.716a124 124 0 0015.033 3.489c9.9 1.821 19.806 2.987 29.706 4.13 9.9 1.094 19.805 2.085 29.725 2.858 6.457.485 12.92.9 19.389 1.274-4.1-.025-8.2-.037-12.3-.088l-17.862-.3a48.586 48.586 0 00-5.632.237c-5.977.6-11.96 1.161-17.952 1.974 5.207.956 10.42 1.77 15.638 2.526a76.806 76.806 0 009.722.789l16.019.269q20.733.257 41.468.1c13.813-.082 27.582-.164 41.352.128 5.782.121 11.567.249 17.35.467a55.148 55.148 0 006.605-.14c5.819-.479 11.647-.944 17.492-1.655-5.849-1.233-11.716-2.232-17.594-3.153a48.235 48.235 0 00-6.036-.552q-6.813-.2-13.632-.368c7.236-.415 14.457-.932 21.665-1.618 9.286-.858 18.56-1.837 27.83-3.036a278.463 278.463 0 0027.828-4.784c2.333-.549 4.672-1.175 7.082-1.989.613-.225 1.209-.424 1.833-.673.638-.283 1.3-.57 1.908-.864 1.079-.609 2.2-1.164 3.237-1.82a87.638 87.638 0 0011.685-8.526c7.22-6.139 13.776-12.651 20.783-18.491a85.218 85.218 0 0117.975-12.01c1.752-.21 3.5-.41 5.256-.634a295.533 295.533 0 0035.968-6.821 57.765 57.765 0 009.026-3.111c3.414-1.5 7.779-3.554 10.381-6.242 4.225-4.355-1.147-9.47-5.488-11.464zM422.088 68.7c4.507 1.1 14.073 2.235 18.181 4.04a7.4 7.4 0 012.07 1.221.454.454 0 01-.108.737 23.42 23.42 0 01-7.359 1.707c-3.48.4-7.013.781-10.567 1.1a27.573 27.573 0 00-2.222-8.809zm-45.357-24.676a65.409 65.409 0 0134.634 17 61.947 61.947 0 0112.461 16.526c-5.535.5-11.116.858-16.627.973-2.66.163-5.319.291-7.977.4q-.526-.723-1.106-1.421l.166.129a47.127 47.127 0 00-24.065-16.449l-.013.075a42.708 42.708 0 00-2.676-5.076 55.764 55.764 0 0135.973 17.2.183.183 0 00.287-.225c-9.5-14.255-23.768-21.228-41.43-23.692a41.1 41.1 0 00-2.276-2.259 41.564 41.564 0 00-5.188-4.046 80.724 80.724 0 0117.837.865zM154.669 69.049c1.971 4.632 8.155 5.506 13.155 4.933a45.584 45.584 0 004.58-.766l-.084.047a21.733 21.733 0 00-4.345 3.26 12.289 12.289 0 00-2.58 3.7q-11.586-.145-23.167-.369a68.886 68.886 0 0112.417-10.874c.009.027.015.048.024.069zm-15.85-11.863a34.451 34.451 0 00-4.464 2.292l-2.087 1.288-1.945 1.457c-1.338.95-2.49 2.028-3.727 3.054-2.382 2.064-4.636 4.212-7 5.948a32.929 32.929 0 01-3.614 2.427c-1.217.758-2.563 1.239-3.816 1.879-1.361.424-2.678.952-4.057 1.26-2.077.464-11.354 1.153-14.87 1.4a16.013 16.013 0 013.7-7.373c.207-.255.438-.5.652-.749a6.731 6.731 0 00.809-.769c9.331-10.327 26.7-14.906 29.495-15.408 4.543-.816 7.534 2.108 10.924 3.294zm-19.832 21.13a38.507 38.507 0 003.882-3.153c2.474-2.2 4.537-4.579 6.678-6.8 1.073-1.067 2.106-2.226 3.236-3.187l1.669-1.511 1.786-1.335a33.654 33.654 0 018.3-4.464c3 .425 5.91 1.582 7.642 3.774-10.82 3.486-21.47 10.052-30.037 17.771q-2.3-.063-4.6-.135c.496-.304.984-.615 1.444-.96zm33.929-15.567a7.058 7.058 0 01.322.686 14.932 14.932 0 01.713 2.885 90.693 90.693 0 00-19.217 13.389c-1.6-.034-3.2-.059-4.8-.095l-.4-.011a69.714 69.714 0 0123.382-16.854zM175.3 77.43a92.779 92.779 0 017.4-5.65 96.027 96.027 0 0110.755-6.347 34.738 34.738 0 0116.226-1.916c.5.059 1.025.144 1.548.225a30.18 30.18 0 015.468 2.6c-9.508 0-18.2 5.349-21.506 7.432s-6.288 4.531-9.169 6.659q-6.717-.054-13.434-.121a15.151 15.151 0 012.712-2.882zm80.959-45.611a93.626 93.626 0 0119.579-1.419 90.725 90.725 0 0116.649 2.032 98.364 98.364 0 00-14.067 7.6 27.849 27.849 0 01-6.668 2.543c-8.915-1.912-18.273-1.516-29.565 4.25-3.365-3.886-3.131-6.534-3.017-10.2a93.555 93.555 0 0117.087-4.806zm76.459 15.105a106.466 106.466 0 01-12.282-.331 79.228 79.228 0 00-11.3-.046 34.966 34.966 0 00-10.427 2.5 25.7 25.7 0 00-9.4 6.54c.243-4.352 3.07-8.455 6.671-11.144a24.517 24.517 0 0112.579-4.7 33.324 33.324 0 0112.878 1.573 41.246 41.246 0 0111.279 5.608zM198.231 77.9a35.057 35.057 0 018.787-5.675 38.975 38.975 0 0110.335-2.872c1.14-.173 2.29-.275 3.445-.35a143.324 143.324 0 0113.982 11.64q-19.659-.027-39.317-.139a53.582 53.582 0 012.768-2.604zm42.715 2.749h-.4a52.659 52.659 0 00-12.611-13.04c8.346 2.132 16.939 4.128 23.407 3.5a90.965 90.965 0 019.241 9.518q-9.817.02-19.637.025zm30.393-.039A123.18 123.18 0 00252.941 66a15.805 15.805 0 013.262-4.333 92.873 92.873 0 0121.782 18.922c-2.216.004-4.431.018-6.646.024zm17.362-.074a122.088 122.088 0 00-29.594-21.018 14.115 14.115 0 012.178-1.011c5.295-1.909 31.736 17.463 46.167 18.157v-.027c4.275.189 8.267-1.3 12.639-3.886 9.609-5.675 10.353-11.112 20.094-3.729a8.231 8.231 0 004.4 1.607 76.6 76.6 0 00-3.672 2.191c-3.588 2.242-6.8 4.9-9.913 7.2l.106.123q-21.196.295-42.406.396zm55.5-3.258a37.881 37.881 0 019.5-6.134 42.115 42.115 0 0111.171-3.1c2.917-.575 4.134-.139 5.509.67a17.854 17.854 0 012.281 2.193c.122.169.257.325.368.5a.357.357 0 00.035-.01 9.426 9.426 0 011.664 3.138 16.66 16.66 0 01-.451 4.973c-7.423.086-14.856.146-22.312.306-3.548.069-7.1.109-10.647.167a57 57 0 012.881-2.7zM244.185 22.363c4.065-1.815 11.895-4.549 16.13-5.049a104.469 104.469 0 0126.411-.485c8.354.778 17.22 3.289 25.148 6.217 4.662 1.7 9.432 4.767 14.04 8.039-10.253-4.447-20.5-3.565-30.57.2A93.711 93.711 0 00276.094 27a97.91 97.91 0 00-20.521-.255 99.6 99.6 0 00-16.681 3.041 9.559 9.559 0 00-.4-1.407 75.833 75.833 0 00-1.052-2.847c.966-.48 2.66-1.345 6.745-3.169zm-37.231-7.427a14.423 14.423 0 0117.485 17.68.558.558 0 01-.808.338A8.274 8.274 0 01220 28.138c-1.9-7.166-7.462-8.228-13.131-12.737a.268.268 0 01.085-.465zm-45.517 34.133c-.933-.65-3.752-5.094-4.113-8.35a31.709 31.709 0 012.41-16.069 25.05 25.05 0 015-7.03 8.586 8.586 0 012.488-.992 7.409 7.409 0 002.178-.828c.914-.718 1.962-1.879 2.52-1.918.726-.051.726.816.38 1.639-.275.653-1.844 3.937-2.412 5.158a9.485 9.485 0 00-1.1 3.7 3.624 3.624 0 00.566 2.556 4.183 4.183 0 002.746 1.415l.038.006c5.133.825 10.386-7.978 17.22-6.259 9.05 2.277 6.706 10.293 7.923 17.419a16.4 16.4 0 005.613 9.472c-7.4 2.659-14.6 6.2-22.42 7.123-9.363 1.111-16.046-4.669-23.315-9.784a14.876 14.876 0 011.356.644c1.075.983 4.693 3.334 2.922 2.098zm-78.656-2.641c7.533-6.04 16.346-10.58 25.67-12 8.462-1.286 17.487.1 24.6 4.541-.2.049-.394.088-.6.143-9.85 2.659-19.787 9.627-26.947 15.6A68.629 68.629 0 0181.02 67.867c-4.954 1.465-10 2.7-15.109 4.07-3.462.931-5.965 2.2-9.672 2.8a27.238 27.238 0 00-3.672.675 21.447 21.447 0 01-1.648-.4 9.682 9.682 0 01-1.386-.492 1.994 1.994 0 01-.44-.233 5.976 5.976 0 011.136-.787 22.687 22.687 0 013.011-1.323c2.118-.778 4.329-1.415 6.552-2.006a9.8 9.8 0 00.875-.28l.733-.191a69.61 69.61 0 00-.8 1.974c5.834-8.274 14.067-19.846 22.181-25.246zm317.778 65.6c-7.653 5.528-14.643 11.727-21.924 17.15a96.955 96.955 0 01-11.16 7.292c-.947.545-1.932.969-2.892 1.462l-1.286.511-1.453.46c-2.01.583-4.176 1.073-6.376 1.491-8.833 1.668-18.013 2.638-27.142 3.627-9.15.943-18.344 1.675-27.543 2.286-9.2.568-18.407 1.15-27.6 1.524-4.6.19-9.188.326-13.752.384-4.527.048-9.2.055-13.3-.3l-.5-.044-.517.044c-2.108.178-4.562.215-6.95.225-2.411.009-4.849.008-7.293-.03-4.89-.069-9.806-.221-14.724-.409q-14.755-.575-29.531-1.578c-15.769-.979-31.583-2.137-47.212-3.888a48.268 48.268 0 01-10.016-2.287c.783-.026 1.565-.055 2.349-.081 7.3-.238 14.627-.468 21.951-.816 14.653-.665 29.278-1.853 43.779-3.661-14.619.015-29.184-.6-43.7-1.729-6.516-.493-22.549-.828-34.175-3.378l14.347-.361 37.608-.936c12.539-.351 25.079-.751 37.614-1.283 12.532-.56 25.073-1.2 37.555-2.388-12.533.291-25.055.031-37.575-.307-12.52-.367-25.035-.866-37.551-1.412l-37.553-1.759s-14.824-.618-25.123-3.376l-.022-.018c14.544.132 29.043.143 43.578.148q35.562-.041 71.109-.4 35.55-.387 71.092-1.15 17.772-.409 35.537-1.047c5.922-.272 11.842-.427 17.76-.808l8.872-.524 8.855-.752-8.875.331-8.879.1c-5.916.1-11.84-.025-17.757-.034q-17.757-.189-35.512-.638-17.923-.439-35.843-1.014 26.06-.187 52.115-.982c25.815-.822 51.624-2.113 77.407-4.2q11.346-.927 22.683-2.12a111.365 111.365 0 00-10.475 6.679zm76.5-28.645a1.559 1.559 0 01-.8.693 6.791 6.791 0 01-.429.176c-3 1.129-6.094 2.024-9.093 3.149-13.23 4.033-27.138 5.97-40.821 7.744-12.693 1.623-25.465 2.877-38.26 3.923-25.594 2.076-51.283 3.362-76.986 4.181s-51.433 1.133-77.158 1.038-51.448-.619-77.14-1.664c-25.688-1.063-51.362-2.6-76.894-5.107-12.759-1.271-25.493-2.78-38.062-4.86-6.277-1.049-12.522-2.248-18.575-3.794-3.008-.792-11.3-3.418-12.457-3.936-.856-.384-1.874-.9-1.848-1.712.035-1.065 1.793-2.522 2.929-3.061 2.813-1.334 3.761-1.355 6.693-2.377 5.925-2.029 13.629-3.422 19.854-4.91 4.467-1.05 8.97-2 13.49-2.894-.816.389-1.66.867-2.412 1.187a8.555 8.555 0 00-1.8 1.021 3.586 3.586 0 00-.927 1.042 2.5 2.5 0 00-.209 2 3.944 3.944 0 001.89 2.019 12.388 12.388 0 001.8.861 34.9 34.9 0 003.5 1.12c2.318.608 4.63 1.081 6.943 1.507 4.625.841 9.25 1.492 13.878 2.081 18.573 1.4 37.1 1.953 55.634 2.419 37.06.853 74.1 1.007 111.138 1.041 37.036 0 74.076-.114 111.132-.835 18.53-.379 26.775-1.073 45.349-1.812 6.736-.268 13.42-.815 18.063-1.266 5.634-.547 14.4-1.473 19.056-2.253 3.218-.538 8.792-1.674 11.421-3.44 2.875-1.93-.681-3.709-2.583-4.33-.078-.026-.029-.148.051-.132 5.827 1.191 11.689 2.229 17.46 3.675 3.061.767 6.172 1.367 9.151 2.427a29.042 29.042 0 013.608 1.589 8.883 8.883 0 013.192 2.13 1.379 1.379 0 01.22 1.364zm-428.13-8.911c-.017.061-.042.1-.046.093s.007-.041.046-.093z" fill="#dcaa7a"/></svg>